<svg xmlns="http://www.w3.org/2000/svg" viewBox="0 0 512 512">
  <defs>
    <linearGradient id="bgGrad" x1="0%" y1="0%" x2="100%" y2="100%">
      <stop offset="0%" style="stop-color:#6366f1;stop-opacity:1" />
      <stop offset="100%" style="stop-color:#4f46e5;stop-opacity:1" />
    </linearGradient>
    <linearGradient id="dbGrad" x1="0%" y1="0%" x2="0%" y2="100%">
      <stop offset="0%" style="stop-color:#ffffff;stop-opacity:1" />
      <stop offset="100%" style="stop-color:#e0e7ff;stop-opacity:1" />
    </linearGradient>
    <filter id="shadow" x="-20%" y="-20%" width="140%" height="140%">
      <feDropShadow dx="0" dy="4" stdDeviation="8" flood-color="#000" flood-opacity="0.25"/>
    </filter>
  </defs>
  
  <!-- Background rounded square -->
  <rect x="32" y="32" width="448" height="448" rx="80" ry="80" fill="url(#bgGrad)" filter="url(#shadow)"/>
  
  <!-- Left database cylinder -->
  <g transform="translate(90, 140)">
    <!-- Cylinder body -->
    <rect x="0" y="20" width="100" height="140" rx="4" fill="url(#dbGrad)" opacity="0.95"/>
    <!-- Top ellipse -->
    <ellipse cx="50" cy="20" rx="50" ry="20" fill="#ffffff"/>
    <!-- Bottom ellipse -->
    <ellipse cx="50" cy="160" rx="50" ry="20" fill="#c7d2fe"/>
    <!-- Middle lines -->
    <ellipse cx="50" cy="70" rx="50" ry="12" fill="none" stroke="#a5b4fc" stroke-width="2"/>
    <ellipse cx="50" cy="115" rx="50" ry="12" fill="none" stroke="#a5b4fc" stroke-width="2"/>
  </g>
  
  <!-- Right database cylinder -->
  <g transform="translate(322, 140)">
    <!-- Cylinder body -->
    <rect x="0" y="20" width="100" height="140" rx="4" fill="url(#dbGrad)" opacity="0.95"/>
    <!-- Top ellipse -->
    <ellipse cx="50" cy="20" rx="50" ry="20" fill="#ffffff"/>
    <!-- Bottom ellipse -->
    <ellipse cx="50" cy="160" rx="50" ry="20" fill="#c7d2fe"/>
    <!-- Middle lines -->
    <ellipse cx="50" cy="70" rx="50" ry="12" fill="none" stroke="#a5b4fc" stroke-width="2"/>
    <ellipse cx="50" cy="115" rx="50" ry="12" fill="none" stroke="#a5b4fc" stroke-width="2"/>
  </g>
  
  <!-- Connection lines (relationship) -->
  <g stroke="#ffffff" stroke-width="4" fill="none" stroke-linecap="round">
    <!-- Main horizontal line -->
    <line x1="190" y1="230" x2="322" y2="230"/>
    <!-- Left crow's foot -->
    <line x1="200" y1="220" x2="190" y2="230"/>
    <line x1="200" y1="240" x2="190" y2="230"/>
    <!-- Right crow's foot -->
    <line x1="312" y1="220" x2="322" y2="230"/>
    <line x1="312" y1="240" x2="322" y2="230"/>
  </g>
  
  <!-- Diamond (relationship symbol) in center -->
  <g transform="translate(256, 230)">
    <polygon points="0,-25 30,0 0,25 -30,0" fill="#fbbf24" stroke="#ffffff" stroke-width="3"/>
  </g>
  
  <!-- Small key icon on left db -->
  <g transform="translate(125, 195)">
    <circle cx="0" cy="0" r="8" fill="#fbbf24"/>
    <rect x="5" y="-3" width="15" height="6" rx="2" fill="#fbbf24"/>
    <rect x="15" y="3" width="5" height="6" rx="1" fill="#fbbf24"/>
  </g>
  
  <!-- Small key icon on right db -->
  <g transform="translate(357, 195)">
    <circle cx="0" cy="0" r="8" fill="#fbbf24"/>
    <rect x="5" y="-3" width="15" height="6" rx="2" fill="#fbbf24"/>
    <rect x="15" y="3" width="5" height="6" rx="1" fill="#fbbf24"/>
  </g>
  
  <!-- "ER" text at bottom -->
  <text x="256" y="385" text-anchor="middle" font-family="Arial, sans-serif" font-weight="bold" font-size="64" fill="#ffffff" opacity="0.9">ER</text>
</svg>
